<mxfile host="app.diagrams.net" modified="2024-03-05T16:27:47.019Z" agent="Mozilla/5.0 (Windows NT 10.0; Win64; x64) AppleWebKit/537.36 (KHTML, like Gecko) Chrome/122.0.0.0 Safari/537.36" etag="x99G9tnEZCpvcgrMkCyV" version="24.0.1" type="device">
  <diagram name="Сторінка-1" id="-iPQpM2pB0m0_ETw5deD">
    <mxGraphModel dx="1841" dy="1021" grid="1" gridSize="10" guides="1" tooltips="1" connect="1" arrows="1" fold="1" page="1" pageScale="1" pageWidth="827" pageHeight="1169" math="0" shadow="0">
      <root>
        <mxCell id="0" />
        <mxCell id="1" parent="0" />
        <mxCell id="NDpz1O4DsVGA7mAzc70L-100" value="&lt;h1&gt;Гра&lt;/h1&gt;" style="shape=folder;fontStyle=1;tabWidth=120;tabHeight=30;tabPosition=left;html=1;boundedLbl=1;labelInHeader=1;container=1;collapsible=0;recursiveResize=0;whiteSpace=wrap;strokeWidth=2;" vertex="1" parent="1">
          <mxGeometry x="170" y="250" width="1340" height="600" as="geometry" />
        </mxCell>
        <mxCell id="NDpz1O4DsVGA7mAzc70L-7" value="&lt;h3&gt;Головне меню&lt;/h3&gt;" style="shape=folder;fontStyle=1;tabWidth=110;tabHeight=30;tabPosition=left;html=1;boundedLbl=1;labelInHeader=1;container=1;collapsible=0;recursiveResize=0;whiteSpace=wrap;strokeWidth=2;fillColor=default;strokeColor=#d79b00;" vertex="1" parent="1">
          <mxGeometry x="220" y="470" width="210" height="200" as="geometry" />
        </mxCell>
        <mxCell id="NDpz1O4DsVGA7mAzc70L-10" value="&lt;h3&gt;Почати гру&lt;/h3&gt;" style="ellipse;whiteSpace=wrap;html=1;strokeWidth=2;fillColor=none;strokeColor=#d79b00;" vertex="1" parent="NDpz1O4DsVGA7mAzc70L-7">
          <mxGeometry x="55" y="120" width="100" height="50" as="geometry" />
        </mxCell>
        <mxCell id="NDpz1O4DsVGA7mAzc70L-11" value="&lt;h3&gt;Інструкція&lt;/h3&gt;" style="ellipse;whiteSpace=wrap;html=1;strokeWidth=2;fillColor=none;strokeColor=#d79b00;" vertex="1" parent="NDpz1O4DsVGA7mAzc70L-7">
          <mxGeometry x="55" y="50" width="100" height="50" as="geometry" />
        </mxCell>
        <mxCell id="NDpz1O4DsVGA7mAzc70L-26" style="rounded=0;orthogonalLoop=1;jettySize=auto;html=1;exitX=0.5;exitY=0.5;exitDx=0;exitDy=0;exitPerimeter=0;entryX=0;entryY=0.5;entryDx=0;entryDy=0;strokeWidth=2;" edge="1" parent="1" source="NDpz1O4DsVGA7mAzc70L-9" target="NDpz1O4DsVGA7mAzc70L-10">
          <mxGeometry relative="1" as="geometry" />
        </mxCell>
        <mxCell id="NDpz1O4DsVGA7mAzc70L-126" style="edgeStyle=orthogonalEdgeStyle;rounded=0;orthogonalLoop=1;jettySize=auto;html=1;exitX=0.5;exitY=0.5;exitDx=0;exitDy=0;exitPerimeter=0;" edge="1" parent="1" source="NDpz1O4DsVGA7mAzc70L-9">
          <mxGeometry relative="1" as="geometry">
            <mxPoint x="55" y="588" as="targetPoint" />
          </mxGeometry>
        </mxCell>
        <mxCell id="NDpz1O4DsVGA7mAzc70L-9" value="&lt;h4&gt;Користувач&lt;/h4&gt;" style="shape=umlActor;verticalLabelPosition=bottom;verticalAlign=top;html=1;strokeWidth=2;" vertex="1" parent="1">
          <mxGeometry x="30" y="540" width="50" height="96" as="geometry" />
        </mxCell>
        <mxCell id="NDpz1O4DsVGA7mAzc70L-12" value="&lt;h3&gt;Процес гри&lt;/h3&gt;" style="shape=folder;fontStyle=1;tabWidth=110;tabHeight=30;tabPosition=left;html=1;boundedLbl=1;labelInHeader=1;container=1;collapsible=0;recursiveResize=0;whiteSpace=wrap;strokeWidth=2;fillColor=default;strokeColor=#d79b00;" vertex="1" parent="1">
          <mxGeometry x="480" y="345" width="700" height="325" as="geometry" />
        </mxCell>
        <mxCell id="NDpz1O4DsVGA7mAzc70L-67" style="rounded=0;orthogonalLoop=1;jettySize=auto;html=1;exitX=0;exitY=0;exitDx=0;exitDy=0;entryX=0.5;entryY=1;entryDx=0;entryDy=0;dashed=1;strokeWidth=2;" edge="1" parent="NDpz1O4DsVGA7mAzc70L-12" source="NDpz1O4DsVGA7mAzc70L-36" target="NDpz1O4DsVGA7mAzc70L-70">
          <mxGeometry relative="1" as="geometry">
            <mxPoint x="120" y="340" as="targetPoint" />
          </mxGeometry>
        </mxCell>
        <mxCell id="NDpz1O4DsVGA7mAzc70L-68" style="edgeStyle=orthogonalEdgeStyle;rounded=0;orthogonalLoop=1;jettySize=auto;html=1;exitX=0.5;exitY=0;exitDx=0;exitDy=0;entryX=0.5;entryY=1;entryDx=0;entryDy=0;strokeWidth=2;dashed=1;" edge="1" parent="NDpz1O4DsVGA7mAzc70L-12" source="NDpz1O4DsVGA7mAzc70L-36" target="NDpz1O4DsVGA7mAzc70L-79">
          <mxGeometry relative="1" as="geometry">
            <mxPoint x="290" y="340" as="targetPoint" />
          </mxGeometry>
        </mxCell>
        <mxCell id="NDpz1O4DsVGA7mAzc70L-69" style="rounded=0;orthogonalLoop=1;jettySize=auto;html=1;exitX=1;exitY=0;exitDx=0;exitDy=0;entryX=0.5;entryY=1;entryDx=0;entryDy=0;strokeWidth=2;dashed=1;" edge="1" parent="NDpz1O4DsVGA7mAzc70L-12" source="NDpz1O4DsVGA7mAzc70L-36" target="NDpz1O4DsVGA7mAzc70L-85">
          <mxGeometry relative="1" as="geometry">
            <mxPoint x="450" y="340" as="targetPoint" />
          </mxGeometry>
        </mxCell>
        <mxCell id="NDpz1O4DsVGA7mAzc70L-36" value="&lt;h3&gt;Поразка&lt;/h3&gt;" style="ellipse;whiteSpace=wrap;html=1;strokeWidth=2;fillColor=none;strokeColor=#d79b00;" vertex="1" parent="NDpz1O4DsVGA7mAzc70L-12">
          <mxGeometry x="300" y="250" width="100" height="50" as="geometry" />
        </mxCell>
        <mxCell id="NDpz1O4DsVGA7mAzc70L-91" style="rounded=0;orthogonalLoop=1;jettySize=auto;html=1;exitX=1;exitY=0.5;exitDx=0;exitDy=0;entryX=0;entryY=0.5;entryDx=0;entryDy=0;dashed=1;strokeWidth=2;" edge="1" parent="NDpz1O4DsVGA7mAzc70L-12" source="NDpz1O4DsVGA7mAzc70L-70" target="NDpz1O4DsVGA7mAzc70L-79">
          <mxGeometry relative="1" as="geometry" />
        </mxCell>
        <mxCell id="NDpz1O4DsVGA7mAzc70L-70" value="" style="shape=ellipse;container=1;horizontal=1;horizontalStack=0;resizeParent=1;resizeParentMax=0;resizeLast=0;html=1;dashed=0;collapsible=0;fillColor=none;strokeColor=#d79b00;strokeWidth=2;" vertex="1" parent="NDpz1O4DsVGA7mAzc70L-12">
          <mxGeometry x="20" y="55" width="200" height="130" as="geometry" />
        </mxCell>
        <mxCell id="NDpz1O4DsVGA7mAzc70L-71" value="&lt;h3&gt;Перший рівень&lt;/h3&gt;" style="html=1;strokeColor=none;fillColor=none;align=center;verticalAlign=middle;rotatable=0;whiteSpace=wrap;" vertex="1" parent="NDpz1O4DsVGA7mAzc70L-70">
          <mxGeometry y="5" width="200" height="32.5" as="geometry" />
        </mxCell>
        <mxCell id="NDpz1O4DsVGA7mAzc70L-72" value="" style="line;strokeWidth=1;fillColor=none;rotatable=0;labelPosition=right;points=[];portConstraint=eastwest;dashed=0;resizeWidth=1;" vertex="1" parent="NDpz1O4DsVGA7mAzc70L-70">
          <mxGeometry x="10" y="32.5" width="180" height="10.83333333333333" as="geometry" />
        </mxCell>
        <mxCell id="NDpz1O4DsVGA7mAzc70L-73" value="extension points" style="text;html=1;align=center;verticalAlign=middle;rotatable=0;fillColor=none;strokeColor=none;whiteSpace=wrap;" vertex="1" parent="NDpz1O4DsVGA7mAzc70L-70">
          <mxGeometry y="43.33642857142857" width="200" height="12.377857142857142" as="geometry" />
        </mxCell>
        <mxCell id="NDpz1O4DsVGA7mAzc70L-74" value="&lt;h3&gt;Перемога&lt;/h3&gt;" style="text;html=1;align=left;verticalAlign=middle;rotatable=0;spacingLeft=25;fillColor=none;strokeColor=none;whiteSpace=wrap;strokeWidth=2;" vertex="1" parent="NDpz1O4DsVGA7mAzc70L-70">
          <mxGeometry x="5" y="57.71428571428571" width="190" height="26.31571428571428" as="geometry" />
        </mxCell>
        <mxCell id="NDpz1O4DsVGA7mAzc70L-77" value="&lt;h3&gt;Поразка&lt;/h3&gt;" style="text;html=1;align=left;verticalAlign=middle;rotatable=0;spacingLeft=25;fillColor=none;strokeColor=none;whiteSpace=wrap;" vertex="1" parent="NDpz1O4DsVGA7mAzc70L-70">
          <mxGeometry x="5" y="86.02999999999999" width="190" height="24.92285714285714" as="geometry" />
        </mxCell>
        <mxCell id="NDpz1O4DsVGA7mAzc70L-92" style="rounded=0;orthogonalLoop=1;jettySize=auto;html=1;exitX=1;exitY=0.5;exitDx=0;exitDy=0;entryX=0;entryY=0.5;entryDx=0;entryDy=0;dashed=1;strokeWidth=2;" edge="1" parent="NDpz1O4DsVGA7mAzc70L-12" source="NDpz1O4DsVGA7mAzc70L-79" target="NDpz1O4DsVGA7mAzc70L-85">
          <mxGeometry relative="1" as="geometry" />
        </mxCell>
        <mxCell id="NDpz1O4DsVGA7mAzc70L-79" value="" style="shape=ellipse;container=1;horizontal=1;horizontalStack=0;resizeParent=1;resizeParentMax=0;resizeLast=0;html=1;dashed=0;collapsible=0;fillColor=none;strokeColor=#d79b00;strokeWidth=2;" vertex="1" parent="NDpz1O4DsVGA7mAzc70L-12">
          <mxGeometry x="250" y="55" width="200" height="130" as="geometry" />
        </mxCell>
        <mxCell id="NDpz1O4DsVGA7mAzc70L-80" value="&lt;h3&gt;Другий рівень&lt;/h3&gt;" style="html=1;strokeColor=none;fillColor=none;align=center;verticalAlign=middle;rotatable=0;whiteSpace=wrap;" vertex="1" parent="NDpz1O4DsVGA7mAzc70L-79">
          <mxGeometry y="5" width="200" height="32.5" as="geometry" />
        </mxCell>
        <mxCell id="NDpz1O4DsVGA7mAzc70L-81" value="" style="line;strokeWidth=1;fillColor=none;rotatable=0;labelPosition=right;points=[];portConstraint=eastwest;dashed=0;resizeWidth=1;" vertex="1" parent="NDpz1O4DsVGA7mAzc70L-79">
          <mxGeometry x="10" y="32.5" width="180" height="10.83333333333333" as="geometry" />
        </mxCell>
        <mxCell id="NDpz1O4DsVGA7mAzc70L-82" value="extension points" style="text;html=1;align=center;verticalAlign=middle;rotatable=0;fillColor=none;strokeColor=none;whiteSpace=wrap;" vertex="1" parent="NDpz1O4DsVGA7mAzc70L-79">
          <mxGeometry y="43.33642857142857" width="200" height="12.377857142857142" as="geometry" />
        </mxCell>
        <mxCell id="NDpz1O4DsVGA7mAzc70L-83" value="&lt;h3&gt;Перемога&lt;/h3&gt;" style="text;html=1;align=left;verticalAlign=middle;rotatable=0;spacingLeft=25;fillColor=none;strokeColor=none;whiteSpace=wrap;" vertex="1" parent="NDpz1O4DsVGA7mAzc70L-79">
          <mxGeometry x="5" y="57.71428571428571" width="190" height="26.31571428571428" as="geometry" />
        </mxCell>
        <mxCell id="NDpz1O4DsVGA7mAzc70L-84" value="&lt;h3&gt;Поразка&lt;/h3&gt;" style="text;html=1;align=left;verticalAlign=middle;rotatable=0;spacingLeft=25;fillColor=none;strokeColor=none;whiteSpace=wrap;" vertex="1" parent="NDpz1O4DsVGA7mAzc70L-79">
          <mxGeometry x="5" y="85.02999999999999" width="190" height="24.92285714285714" as="geometry" />
        </mxCell>
        <mxCell id="NDpz1O4DsVGA7mAzc70L-85" value="" style="shape=ellipse;container=1;horizontal=1;horizontalStack=0;resizeParent=1;resizeParentMax=0;resizeLast=0;html=1;dashed=0;collapsible=0;fillColor=none;strokeColor=#d79b00;strokeWidth=2;" vertex="1" parent="NDpz1O4DsVGA7mAzc70L-12">
          <mxGeometry x="480" y="55" width="200" height="130" as="geometry" />
        </mxCell>
        <mxCell id="NDpz1O4DsVGA7mAzc70L-86" value="&lt;h3&gt;Третій рівень&lt;/h3&gt;" style="html=1;strokeColor=none;fillColor=none;align=center;verticalAlign=middle;rotatable=0;whiteSpace=wrap;" vertex="1" parent="NDpz1O4DsVGA7mAzc70L-85">
          <mxGeometry y="6" width="200" height="32.5" as="geometry" />
        </mxCell>
        <mxCell id="NDpz1O4DsVGA7mAzc70L-87" value="" style="line;strokeWidth=1;fillColor=none;rotatable=0;labelPosition=right;points=[];portConstraint=eastwest;dashed=0;resizeWidth=1;" vertex="1" parent="NDpz1O4DsVGA7mAzc70L-85">
          <mxGeometry x="10" y="32.5" width="180" height="10.83333333333333" as="geometry" />
        </mxCell>
        <mxCell id="NDpz1O4DsVGA7mAzc70L-88" value="extension points" style="text;html=1;align=center;verticalAlign=middle;rotatable=0;fillColor=none;strokeColor=none;whiteSpace=wrap;" vertex="1" parent="NDpz1O4DsVGA7mAzc70L-85">
          <mxGeometry y="43.33642857142857" width="200" height="12.377857142857142" as="geometry" />
        </mxCell>
        <mxCell id="NDpz1O4DsVGA7mAzc70L-89" value="&lt;h3&gt;Перемога&lt;/h3&gt;" style="text;html=1;align=left;verticalAlign=middle;rotatable=0;spacingLeft=25;fillColor=none;strokeColor=none;whiteSpace=wrap;" vertex="1" parent="NDpz1O4DsVGA7mAzc70L-85">
          <mxGeometry x="5" y="55.71428571428571" width="190" height="26.31571428571428" as="geometry" />
        </mxCell>
        <mxCell id="NDpz1O4DsVGA7mAzc70L-90" value="&lt;h3&gt;Поразка&lt;/h3&gt;" style="text;html=1;align=left;verticalAlign=middle;rotatable=0;spacingLeft=25;fillColor=none;strokeColor=none;whiteSpace=wrap;" vertex="1" parent="NDpz1O4DsVGA7mAzc70L-85">
          <mxGeometry x="5" y="85.02999999999999" width="190" height="24.92285714285714" as="geometry" />
        </mxCell>
        <mxCell id="NDpz1O4DsVGA7mAzc70L-94" value="&amp;lt;extend&amp;gt;" style="text;html=1;align=center;verticalAlign=middle;whiteSpace=wrap;rounded=0;strokeWidth=2;" vertex="1" parent="NDpz1O4DsVGA7mAzc70L-12">
          <mxGeometry x="160" y="224" width="50" height="25" as="geometry" />
        </mxCell>
        <mxCell id="NDpz1O4DsVGA7mAzc70L-21" value="&lt;h3&gt;Перемога&lt;/h3&gt;" style="shape=folder;fontStyle=1;tabWidth=110;tabHeight=30;tabPosition=left;html=1;boundedLbl=1;labelInHeader=1;container=1;collapsible=0;recursiveResize=0;whiteSpace=wrap;strokeWidth=2;fillColor=default;strokeColor=#d79b00;" vertex="1" parent="1">
          <mxGeometry x="1230" y="310" width="210" height="140" as="geometry" />
        </mxCell>
        <mxCell id="NDpz1O4DsVGA7mAzc70L-23" value="&lt;h4&gt;Вивід інфи про те що ти молодець&lt;/h4&gt;" style="ellipse;whiteSpace=wrap;html=1;strokeWidth=2;spacing=11;fillColor=none;strokeColor=#d79b00;" vertex="1" parent="NDpz1O4DsVGA7mAzc70L-21">
          <mxGeometry x="32.5" y="50" width="145" height="65" as="geometry" />
        </mxCell>
        <mxCell id="NDpz1O4DsVGA7mAzc70L-56" value="&lt;h3&gt;Поразка&lt;/h3&gt;" style="shape=folder;fontStyle=1;tabWidth=110;tabHeight=30;tabPosition=left;html=1;boundedLbl=1;labelInHeader=1;container=1;collapsible=0;recursiveResize=0;whiteSpace=wrap;strokeWidth=2;fillColor=default;strokeColor=#d79b00;" vertex="1" parent="1">
          <mxGeometry x="1230" y="610" width="210" height="130" as="geometry" />
        </mxCell>
        <mxCell id="NDpz1O4DsVGA7mAzc70L-58" value="&lt;h4&gt;Запит на повторну гру&lt;/h4&gt;" style="ellipse;whiteSpace=wrap;html=1;spacing=8;spacingTop=0;strokeWidth=2;fillColor=none;strokeColor=#d79b00;" vertex="1" parent="NDpz1O4DsVGA7mAzc70L-56">
          <mxGeometry x="45" y="50" width="120" height="60" as="geometry" />
        </mxCell>
        <mxCell id="NDpz1O4DsVGA7mAzc70L-62" style="rounded=0;orthogonalLoop=1;jettySize=auto;html=1;exitX=1;exitY=0.5;exitDx=0;exitDy=0;entryX=0;entryY=0.5;entryDx=0;entryDy=0;strokeWidth=2;" edge="1" parent="1" source="NDpz1O4DsVGA7mAzc70L-36" target="NDpz1O4DsVGA7mAzc70L-58">
          <mxGeometry relative="1" as="geometry" />
        </mxCell>
        <mxCell id="NDpz1O4DsVGA7mAzc70L-59" value="&lt;h2&gt;Вихід з гри&lt;/h2&gt;" style="ellipse;whiteSpace=wrap;html=1;strokeWidth=2;" vertex="1" parent="1">
          <mxGeometry x="1550" y="503" width="160" height="77" as="geometry" />
        </mxCell>
        <mxCell id="NDpz1O4DsVGA7mAzc70L-64" style="edgeStyle=orthogonalEdgeStyle;rounded=0;orthogonalLoop=1;jettySize=auto;html=1;exitX=0.5;exitY=1;exitDx=0;exitDy=0;strokeWidth=2;" edge="1" parent="1" source="NDpz1O4DsVGA7mAzc70L-58" target="NDpz1O4DsVGA7mAzc70L-10">
          <mxGeometry relative="1" as="geometry">
            <Array as="points">
              <mxPoint x="1335" y="760" />
              <mxPoint x="320" y="760" />
            </Array>
          </mxGeometry>
        </mxCell>
        <mxCell id="NDpz1O4DsVGA7mAzc70L-65" style="rounded=0;orthogonalLoop=1;jettySize=auto;html=1;exitX=1;exitY=0.5;exitDx=0;exitDy=0;entryX=0.5;entryY=1;entryDx=0;entryDy=0;strokeWidth=2;" edge="1" parent="1" source="NDpz1O4DsVGA7mAzc70L-58" target="NDpz1O4DsVGA7mAzc70L-59">
          <mxGeometry relative="1" as="geometry" />
        </mxCell>
        <mxCell id="NDpz1O4DsVGA7mAzc70L-66" style="rounded=0;orthogonalLoop=1;jettySize=auto;html=1;exitX=1;exitY=0.5;exitDx=0;exitDy=0;entryX=0.5;entryY=0;entryDx=0;entryDy=0;strokeWidth=2;" edge="1" parent="1" source="NDpz1O4DsVGA7mAzc70L-23" target="NDpz1O4DsVGA7mAzc70L-59">
          <mxGeometry relative="1" as="geometry" />
        </mxCell>
        <mxCell id="NDpz1O4DsVGA7mAzc70L-93" style="edgeStyle=orthogonalEdgeStyle;rounded=0;orthogonalLoop=1;jettySize=auto;html=1;exitX=0.5;exitY=1;exitDx=0;exitDy=0;exitPerimeter=0;" edge="1" parent="1" source="NDpz1O4DsVGA7mAzc70L-12" target="NDpz1O4DsVGA7mAzc70L-12">
          <mxGeometry relative="1" as="geometry" />
        </mxCell>
        <mxCell id="NDpz1O4DsVGA7mAzc70L-96" value="&amp;lt;extend&amp;gt;" style="text;html=1;align=center;verticalAlign=middle;whiteSpace=wrap;rounded=0;strokeWidth=2;" vertex="1" parent="1">
          <mxGeometry x="834" y="557" width="50" height="25" as="geometry" />
        </mxCell>
        <mxCell id="NDpz1O4DsVGA7mAzc70L-95" value="&amp;lt;extend&amp;gt;" style="text;html=1;align=center;verticalAlign=middle;whiteSpace=wrap;rounded=0;strokeWidth=2;" vertex="1" parent="1">
          <mxGeometry x="960" y="569" width="50" height="25" as="geometry" />
        </mxCell>
        <mxCell id="NDpz1O4DsVGA7mAzc70L-98" style="rounded=0;orthogonalLoop=1;jettySize=auto;html=1;exitX=1;exitY=0.5;exitDx=0;exitDy=0;entryX=0;entryY=0.5;entryDx=0;entryDy=0;strokeWidth=2;" edge="1" parent="1" source="NDpz1O4DsVGA7mAzc70L-85" target="NDpz1O4DsVGA7mAzc70L-23">
          <mxGeometry relative="1" as="geometry" />
        </mxCell>
        <mxCell id="NDpz1O4DsVGA7mAzc70L-99" style="rounded=0;orthogonalLoop=1;jettySize=auto;html=1;exitX=1;exitY=0.5;exitDx=0;exitDy=0;entryX=0;entryY=0.5;entryDx=0;entryDy=0;strokeWidth=2;" edge="1" parent="1" source="NDpz1O4DsVGA7mAzc70L-10" target="NDpz1O4DsVGA7mAzc70L-70">
          <mxGeometry relative="1" as="geometry" />
        </mxCell>
        <mxCell id="NDpz1O4DsVGA7mAzc70L-27" style="rounded=0;orthogonalLoop=1;jettySize=auto;html=1;exitX=0.5;exitY=0.5;exitDx=0;exitDy=0;exitPerimeter=0;entryX=0;entryY=0.5;entryDx=0;entryDy=0;strokeWidth=2;" edge="1" parent="1" source="NDpz1O4DsVGA7mAzc70L-9" target="NDpz1O4DsVGA7mAzc70L-11">
          <mxGeometry relative="1" as="geometry" />
        </mxCell>
      </root>
    </mxGraphModel>
  </diagram>
</mxfile>
